<mxfile host="app.diagrams.net" modified="2024-03-12T08:18:14.398Z" agent="Mozilla/5.0 (Windows NT 10.0; Win64; x64; rv:123.0) Gecko/20100101 Firefox/123.0" version="22.1.18" etag="x6sTcoji0N4DCha2sWU4" type="github">
  <diagram name="Page-1" id="mlcki5TZNNiFtknJNaiA">
    <mxGraphModel>
      <root>
        <mxCell id="0" />
        <mxCell id="1" parent="0" />
      </root>
    </mxGraphModel>
  </diagram>
</mxfile>
